<svg xmlns="http://www.w3.org/2000/svg" xmlns:xlink="http://www.w3.org/1999/xlink" id="Calque_1" width="64" height="64" x="0" y="0" enable-background="new 0 0 64 64" version="1.1" viewBox="0 0 64 64" xml:space="preserve"><switch><g><g><g><path fill="#F9C79F" d="M25.469,53.5c-10.973-0.061-19.9-9.236-19.9-20.453c0-11.216,8.927-20.392,19.9-20.453l2.807,0.005 h18.483c2.902,0,5.263,2.41,5.263,5.372c0,0,0.068,6.029,0.068,6.16c0,1.718,0.444,1.718,0.959,1.718 c0.496,0,0.654-0.211,0.965-0.689c0.336-0.517,0.796-1.224,1.999-1.224c2.087,0,2.094,3.082,2.105,7.748l0.004,1.431 l-0.004,1.297c-0.011,4.666-0.018,7.749-2.105,7.749c-1.202,0-1.663-0.708-1.999-1.226c-0.311-0.479-0.47-0.69-0.965-0.69 c-0.515,0-0.959,0-0.959,1.721c0,0.131-0.068,6.164-0.068,6.164c0,2.957-2.361,5.367-5.263,5.367H28.274L25.469,53.5z"/><g><path fill="#F19142" d="M25.472,13.094l2.803,0.005h18.484c2.63,0,4.763,2.183,4.763,4.872c0,0,0.068,6.029,0.068,6.16 c0,1.967,0.615,2.218,1.459,2.218c1.621,0,1.152-1.913,2.964-1.913c1.743,0,1.581,3.551,1.609,8.549c0,0.021,0,0.041,0,0.063 s0,0.041,0,0.064c-0.028,4.996,0.134,8.549-1.609,8.549c-1.812,0-1.343-1.916-2.964-1.916c-0.844,0-1.459,0.254-1.459,2.221 c0,0.131-0.068,6.158-0.068,6.158c0,2.691-2.133,4.873-4.763,4.873H28.274L25.472,53C14.746,52.94,6.068,44.031,6.068,33.047 S14.746,13.154,25.472,13.094 M25.474,12.094H25.47h-0.004C14.219,12.157,5.068,21.557,5.068,33.047 c0,11.491,9.15,20.891,20.398,20.953l2.81-0.004h18.483c3.178,0,5.763-2.635,5.763-5.873c0.007-0.606,0.068-6.025,0.068-6.158 c0-0.94,0.16-1.18,0.178-1.204c0,0.001,0,0.001,0.002,0.001c0.014,0,0.09-0.018,0.278-0.018c0.212,0,0.245,0,0.546,0.463 c0.354,0.544,0.944,1.453,2.418,1.453c2.585,0,2.593-3.281,2.605-8.248l0.004-1.295v-0.07v-0.063l-0.004-1.302 c-0.012-4.966-0.02-8.247-2.605-8.247c-1.473,0-2.064,0.908-2.417,1.451c-0.301,0.462-0.333,0.462-0.546,0.462 c-0.22,0-0.288-0.024-0.299-0.029c0.005-0.002-0.16-0.232-0.16-1.188c0-0.133-0.062-5.554-0.068-6.172 c0-3.227-2.585-5.86-5.763-5.86H28.274L25.474,12.094L25.474,12.094z"/></g></g><line x1="21.5" x2="21.5" y1="22" y2="47" fill="none" stroke="#F19143" stroke-linecap="round" stroke-miterlimit="10" stroke-width="3"/><g><path fill="#F29656" d="M45,39c-7.333,5.44-14.667-5.44-22,0c0-5.333,0-10.667,0-16c7.333-5.44,14.667,5.44,22,0 C45,28.333,45,33.667,45,39z"/></g></g></g></switch></svg>