<svg xmlns="http://www.w3.org/2000/svg" xmlns:xlink="http://www.w3.org/1999/xlink" id="Calque_1" width="64" height="64" x="0" y="0" enable-background="new 0 0 64 64" version="1.1" viewBox="0 0 64 64" xml:space="preserve"><switch><g><g><path fill="#F7B47D" d="M15,58c-1.654,0-3-1.346-3-3V11c0-1.654,1.346-3,3-3h36c1.654,0,3,1.346,3,3v44c0,1.654-1.346,3-3,3H15z"/><g><path fill="#5BA8D9" d="M51,10H15c-0.542,0-1,0.458-1,1v42c0,0.542,0.458,1,1,1h36c0.542,0,1-0.458,1-1V11 C52,10.458,51.542,10,51,10z M50,52H16V12h34V52z"/></g><g><path fill="#FACFAC" d="M51,10H15c-0.542,0-1,0.458-1,1v42c0,0.542,0.458,1,1,1h36c0.542,0,1-0.458,1-1V11 C52,10.458,51.542,10,51,10z"/></g><g><path fill="#FFF" d="M50,52H16V12h34V52z"/></g><path fill="#F6B178" d="M50,12L16,52h34c0,0,0,0,0-3C50,45,50,12,50,12z" opacity=".25"/><rect width="26" height="3" x="20" y="8" fill="#FACFAC"/><rect width="20" height="3" x="23" y="5" fill="#FACFAC"/><circle cx="32.5" cy="8.5" r="2.5" fill="#FFF"/><circle cx="33" cy="33.5" r="13" fill="none" stroke="#F6B178" stroke-miterlimit="10" stroke-width="2"/><polyline fill="none" stroke="#F6B178" stroke-miterlimit="10" stroke-width="4" points="27 34 31 39 39.5 28.5"/></g></g></switch></svg>