<svg xmlns="http://www.w3.org/2000/svg" xmlns:xlink="http://www.w3.org/1999/xlink" id="Calque_1" width="64" height="64" x="0" y="0" enable-background="new 0 0 64 64" version="1.1" viewBox="0 0 64 64" xml:space="preserve"><switch><g><g><g><path fill="#F6B178" d="M13.383,55.057c-3.401,0-6.32-2.752-6.32-5.889c0-0.001,0.01-4.059,0.01-6.52 c0-0.666,0-2.053,0.913-2.053c0.505,0,0.898,0.525,1.228,1.019c0.479,0.709,1.138,1.067,2.071,1.126 c0.056,0.004,0.109,0.005,0.162,0.005c0.651,0,1.018-0.259,1.547-0.804c0.822-0.841,0.86-2.368,0.903-9.444 c-0.043-7.068-0.081-8.596-0.902-9.436c-0.532-0.546-0.899-0.806-1.551-0.806l-0.159,0.005 c-0.933,0.058-1.591,0.416-2.072,1.129c-0.419,0.626-0.771,1.016-1.227,1.016c-0.913,0-0.913-1.387-0.913-2.054 c0-2.46-0.01-6.519-0.01-6.519c0-3.138,2.919-5.89,6.247-5.89h33.213c3.179,0,5.766,2.642,5.766,5.889 c0,0,0.074,6.666,0.074,6.81c0,1.952,0.516,1.952,1.113,1.952c0.576,0,0.768-0.255,1.113-0.786 c0.365-0.562,0.865-1.329,2.167-1.329c2.252,0,2.26,3.38,2.272,8.496l0.005,1.599l-0.005,1.453 c-0.012,5.116-0.02,8.496-2.272,8.496c-1.302,0-1.802-0.768-2.167-1.329c-0.346-0.531-0.538-0.786-1.113-0.786 c-0.597,0-1.113,0-1.113,1.953c0,0.145-0.074,6.813-0.074,6.813c0,3.241-2.586,5.883-5.766,5.883H13.383z"/><path fill="#F19142" d="M46.522,10.443c2.908,0,5.266,2.414,5.266,5.389c0,0,0.074,6.666,0.074,6.81 c0,2.175,0.684,2.452,1.613,2.452c1.795,0,1.274-2.115,3.28-2.115c1.927,0,1.745,3.927,1.777,9.452c0,0.025,0,0.047,0,0.069 s0,0.044,0,0.07c-0.032,5.524,0.149,9.452-1.777,9.452c-2.006,0-1.485-2.115-3.28-2.115c-0.93,0-1.613,0.277-1.613,2.453 c0,0.145-0.074,6.808-0.074,6.808c0,2.978-2.357,5.389-5.266,5.389H26.086H13.383H13.31c-2.909,0-5.747-2.411-5.747-5.389 c0,0,0.01-4.058,0.01-6.52c0-1.175,0.178-1.553,0.413-1.553c0.254,0,0.576,0.442,0.812,0.796 c0.412,0.609,1.111,1.264,2.456,1.348c0.066,0.004,0.131,0.006,0.193,0.006c0.866,0,1.356-0.391,1.906-0.955 c0.969-0.991,1-2.473,1.045-9.79c-0.045-7.316-0.076-8.797-1.045-9.788c-0.55-0.564-1.041-0.956-1.909-0.956 c-0.061,0-0.125,0.002-0.19,0.006c-1.345,0.083-2.044,0.737-2.456,1.348c-0.236,0.354-0.558,0.796-0.812,0.796 c-0.235,0-0.413-0.378-0.413-1.554c0-2.461-0.01-6.52-0.01-6.52c0-2.975,2.838-5.389,5.747-5.389h0.073h12.703H46.522 M46.522,9.443H26.086H13.383H13.31c-3.594,0-6.747,2.985-6.747,6.389c0,0.003,0.01,4.06,0.01,6.52c0,0.698,0,2.554,1.413,2.554 c0.751,0,1.243-0.64,1.644-1.24c0.261-0.387,0.692-0.844,1.686-0.905c0.044-0.003,0.087-0.004,0.128-0.004 c0.441,0,0.687,0.135,1.192,0.654c0.684,0.699,0.72,2.324,0.761,9.096c-0.042,6.762-0.077,8.387-0.76,9.085 c-0.506,0.521-0.75,0.654-1.19,0.654c-0.042,0-0.086-0.001-0.131-0.004c-0.994-0.063-1.425-0.519-1.69-0.91 c-0.397-0.595-0.887-1.235-1.64-1.235c-0.219,0-0.955,0.075-1.251,1.043c-0.111,0.361-0.162,0.841-0.162,1.51 c0,2.461-0.01,6.517-0.01,6.518c0,3.405,3.153,6.391,6.747,6.391h0.073h12.703h20.437c3.455,0,6.266-2.866,6.266-6.389 c0.007-0.672,0.074-6.662,0.074-6.808c0-1.453,0.218-1.453,0.613-1.453c0.299,0,0.364,0.052,0.694,0.56 c0.379,0.582,1.013,1.556,2.586,1.556c2.75,0,2.759-3.578,2.772-8.995l0.005-1.451V32.5v-0.069l-0.005-1.457 c-0.013-5.417-0.021-8.995-2.772-8.995c-1.573,0-2.207,0.974-2.586,1.556c-0.33,0.507-0.395,0.56-0.694,0.56 c-0.396,0-0.613,0-0.613-1.452c0-0.145-0.067-6.138-0.074-6.82C52.788,12.31,49.978,9.443,46.522,9.443L46.522,9.443z"/></g></g><g><path fill="#F19142" d="M46.025,35.244l-2.103,0.131c-0.716,0.087-1.231-0.538-1.143-1.389c0,0,0.325-2.251,0.325-5.114 c0-5.847-4.744-10.585-10.592-10.585s-10.589,4.738-10.592,10.585c0.001,0.853,0.083,1.546,0.938,1.546h4.832 c1.195,0,1.195-0.986,1.195-1.539c0-2.003,1.624-3.625,3.627-3.625s4.088,1.622,4.088,3.625c0,2.313-0.134,5.107-0.134,5.107 c0.088,0.851-0.426,1.476-1.145,1.389l-2.102-0.131c-0.863-0.106-1.567,0.352-1.567,1.799c0,1.968,7.012,7.616,7.012,7.616 c0.527,0.588,1.387,0.588,1.914,0c0,0,7.012-5.844,7.012-7.616C47.592,35.717,46.887,35.138,46.025,35.244z"/></g><g><path fill="#F19142" d="M27.307,38.581h-3.801c-0.876,0-1.584,0.731-1.584,1.629v2.129c0,0.9,0.708,1.629,1.584,1.629h3.801 c0.875,0,1.58-0.729,1.58-1.629V40.21C28.887,39.313,28.182,38.581,27.307,38.581z"/></g><g><path fill="#F19142" d="M27.307,45.55h-3.801c-0.876,0-1.584,0.73-1.584,1.628v2.128c0,0.9,0.708,1.63,1.584,1.63h3.801 c0.875,0,1.58-0.729,1.58-1.63v-2.128C28.887,46.28,28.182,45.55,27.307,45.55z"/></g><g><path fill="#F19142" d="M27.307,32.388h-3.801c-0.876,0-1.584,0.73-1.584,1.629v1.355c0,0.898,0.708,1.627,1.584,1.627h3.801 c0.875,0,1.58-0.729,1.58-1.627v-1.355C28.887,33.118,28.182,32.388,27.307,32.388z"/></g><g><path fill="#FFF" d="M46.025,33.751l-2.103,0.131c-0.716,0.086-1.231-0.538-1.143-1.389c0,0,0.325-2.251,0.325-5.114 c0-5.846-4.744-10.586-10.592-10.586s-10.589,4.74-10.592,10.586c0.001,0.854,0.083,1.545,0.938,1.545h4.832 c1.195,0,1.195-0.985,1.195-1.537c0-2.004,1.624-3.627,3.627-3.627s4.088,1.623,4.088,3.627c0,2.311-0.134,5.106-0.134,5.106 c0.088,0.851-0.426,1.475-1.145,1.389l-2.102-0.131c-0.863-0.105-1.567,0.352-1.567,1.799c0,1.969,7.012,7.615,7.012,7.615 c0.527,0.588,1.387,0.588,1.914,0c0,0,7.012-5.842,7.012-7.615C47.592,34.224,46.887,33.646,46.025,33.751z"/></g><g><path fill="#FFF" d="M27.307,37.089h-3.801c-0.876,0-1.584,0.73-1.584,1.628v2.13c0,0.898,0.708,1.627,1.584,1.627h3.801 c0.875,0,1.58-0.729,1.58-1.627v-2.13C28.887,37.819,28.182,37.089,27.307,37.089z"/></g><g><path fill="#FFF" d="M27.307,44.056h-3.801c-0.876,0-1.584,0.73-1.584,1.629v2.129c0,0.9,0.708,1.629,1.584,1.629h3.801 c0.875,0,1.58-0.729,1.58-1.629v-2.129C28.887,44.786,28.182,44.056,27.307,44.056z"/></g><g><path fill="#FFF" d="M27.307,30.895h-3.801c-0.876,0-1.584,0.73-1.584,1.628v1.355c0,0.9,0.708,1.629,1.584,1.629h3.801 c0.875,0,1.58-0.729,1.58-1.629v-1.355C28.887,31.625,28.182,30.895,27.307,30.895z"/></g></g></switch></svg>