<svg xmlns="http://www.w3.org/2000/svg" xmlns:xlink="http://www.w3.org/1999/xlink" id="Calque_1" width="64" height="64" x="0" y="0" enable-background="new 0 0 64 64" version="1.1" viewBox="0 0 64 64" xml:space="preserve"><switch><g><g><g><g><path fill="#F6B178" d="M36,12c-1.1,0-2.54,0.72-3.2,1.6L32.2,14.4c-0.66,0.88-1.74,0.88-2.4,0L29.2,13.6 C28.54,12.72,27.1,12,26,12H4c-1.1,0-2,0.9-2,2v37c0,1.1,0.9,2,2,2h22c1.1,0,2.54,0.72,3.2,1.6l0.6,0.801 c0.66,0.88,1.74,0.88,2.4,0l0.6-0.801c0.66-0.88,2.1-1.6,3.2-1.6h23c1.1,0,2-0.9,2-2V14c0-1.1-0.9-2-2-2H36z"/></g></g></g><g><path fill="#FFF" d="M29.6,51.8C29.27,51.36,28.55,51,28,51H5c-0.55,0-1-0.45-1-1V15c0-0.55,0.45-1,1-1h21 c0.55,0,1.27,0.36,1.6,0.8l2.8,3.734c0.33,0.439,0.87,0.439,1.2,0l2.8-3.734C34.73,14.36,35.45,14,36,14h22c0.55,0,1,0.45,1,1v35 c0,0.55-0.45,1-1,1H34c-0.55,0-1.27,0.36-1.6,0.8l-0.8,1.066c-0.33,0.439-0.87,0.439-1.2,0L29.6,51.8z"/></g><polygon fill="#FACFAC" points="19 27 14 23 9 27 9 11 19 11"/><rect width="17" height="2" x="9" y="30" fill="#F19142"/><rect width="5" height="2" x="21" y="25" fill="#F19142"/><rect width="5" height="2" x="21" y="20" fill="#F19142"/><rect width="17" height="2" x="9" y="35" fill="#F19142"/><rect width="17" height="2" x="9" y="40" fill="#F19142"/><rect width="17" height="2" x="38" y="30" fill="#F19142"/><rect width="17" height="2" x="38" y="35" fill="#F19142"/><rect width="17" height="2" x="38" y="25" fill="#F19142"/><rect width="17" height="2" x="38" y="20" fill="#F19142"/><rect width="17" height="2" x="38" y="40" fill="#F19142"/><path fill="#FACFAC" d="M32,47h27c0,1-1.037,2-2.076,2S32,49,32,49V47z"/><path fill="#FACFAC" d="M31,47H4c0,1,1.037,2,2.076,2S31,49,31,49V47z"/><rect width="2" height="34" x="30" y="18" fill="#FACFAC"/></g></switch></svg>