<svg xmlns="http://www.w3.org/2000/svg" xmlns:xlink="http://www.w3.org/1999/xlink" id="Calque_1" width="64" height="64" x="0" y="0" enable-background="new 0 0 64 64" version="1.1" viewBox="0 0 64 64" xml:space="preserve"><switch><g><g><g><path fill="#5BA8D9" d="M30,23h10V13c0-2.75-2.25-5-5-5H10c-2.75,0-5,2.25-5,5v14c0,2.75,2.25,5,5,5h2v8l7.5-8H23v-2 C23,26.15,26.15,23,30,23z"/><path fill="#C3E3F5" d="M14,30h-4c-1.654,0-3-1.346-3-3V13c0-1.654,1.346-3,3-3h25c1.654,0,3,1.346,3,3v8h-8 c-4.963,0-9,4.038-9,9h-2.367L14,34.942V30z"/><linearGradient id="SVGID_1_" x1="22.5" x2="22.5" y1="5.583" y2="16.615" gradientUnits="userSpaceOnUse"><stop offset="0" style="stop-color:#fff"/><stop offset="1" style="stop-color:#fff;stop-opacity:0"/></linearGradient><path fill="url(#SVGID_1_)" d="M14,30h-4c-1.654,0-3-1.346-3-3V13c0-1.654,1.346-3,3-3h25c1.654,0,3,1.346,3,3v8 h-8c-4.963,0-9,4.038-9,9h-2.367L14,34.942V30z" opacity=".5"/><path fill="#C3E3F5" d="M16,28h-6c-0.551,0-1-0.449-1-1V13c0-0.551,0.449-1,1-1h25c0.551,0,1,0.449,1,1v6h-6 c-5.383,0-9.875,3.886-10.818,9h-1.415H16L16,28z"/><path fill="#5BA8D9" d="M55,25H40H30c-2.75,0-5,2.25-5,5v2v12c0,2.75,2.25,5,5,5h15.5l7.5,8v-8h2c2.75,0,5-2.25,5-5V30 C60,27.25,57.75,25,55,25z"/><path fill="#FFF" d="M46.367,47H30c-1.654,0-3-1.346-3-3V30c0-1.654,1.346-3,3-3h25c1.654,0,3,1.346,3,3v14 c0,1.654-1.346,3-3,3h-4v4.942L46.367,47z"/><path fill="#DFF0FA" d="M30,47h16l5,5v-5h4c0,0,3,0,3-3c0-4,0-14,0-14L30,47z" opacity=".5"/></g><rect width="31" height="16" x="27" y="31" fill="none"/><text fill="#5BA8D9" font-family="'HelveticaNeueLTStd-Bd'" font-size="18" transform="matrix(1 0 0 1 37.4961 43.8516)">?</text></g></g></switch></svg>