<svg xmlns="http://www.w3.org/2000/svg" xmlns:xlink="http://www.w3.org/1999/xlink" id="Calque_1" width="64" height="64" x="0" y="0" enable-background="new 0 0 64 64" version="1.1" viewBox="0 0 64 64" xml:space="preserve"><switch><g><g><path fill="#FFF" d="M51,47v7c0,1.65-1.35,3-3,3H13c-1.65,0-3-1.35-3-3V11c0-1.65,1.35-3,3-3h35c1.65,0,3,1.35,3,3v14"/><g><rect width="14" height="2" x="14" y="31" fill="#5BA8D9"/><rect width="13" height="2" x="14" y="36" fill="#5BA8D9"/><rect width="15" height="2" x="14" y="41" fill="#5BA8D9"/><rect width="18" height="2" x="14" y="46" fill="#5BA8D9"/><g><polygon fill="#5BA8D9" points="37 22 29 28 15 28 15 14 46 14 46 23"/><polygon fill="#FFF" points="17 26 17 16 44 16 44 20.766 44 26 28.334 26"/><rect width="2" height="8" x="31" y="17" fill="#5BA8D9"/><g><path fill="#FFF" d="M41,21c-8.284,0-15,6.716-15,15s6.716,15,15,15s15-6.716,15-15S49.284,21,41,21z M41,49 c-7.168,0-13-5.832-13-13s5.832-13,13-13s13,5.832,13,13S48.168,49,41,49z"/></g><g><path fill="#5BA8D9" d="M51,47.158V54c0,1.65-1.35,3-3,3H13c-1.65,0-3-1.35-3-3V11c0-1.65,1.35-3,3-3h35c1.65,0,3,1.35,3,3 v13.842c0.736,0.661,1.406,1.393,2,2.186V11c0-2.75-2.25-5-5-5H13c-2.75,0-5,2.25-5,5v43c0,2.75,2.25,5,5,5h35 c2.75,0,5-2.25,5-5v-9.027C52.406,45.766,51.736,46.497,51,47.158z"/></g></g><g><path fill="#C3E3F5" d="M41,49c-7.168,0-13-5.832-13-13s5.832-13,13-13s13,5.832,13,13S48.168,49,41,49z"/><path fill="#C3E3F5" d="M41,47c-6.065,0-11-4.935-11-11s4.935-11,11-11s11,4.935,11,11S47.065,47,41,47z"/><g><circle cx="43" cy="29.5" r="2.5" fill="#5BA8D9"/><rect width="8" height="2" x="39" y="34" fill="#5BA8D9"/><rect width="8" height="2" x="39" y="43" fill="#5BA8D9"/><rect width="4" height="7" x="41" y="36" fill="#5BA8D9"/></g></g><circle cx="41" cy="29.5" r="2.5" fill="#FFF"/><rect width="8" height="2" x="37" y="34" fill="#FFF"/><rect width="8" height="2" x="37" y="43" fill="#FFF"/><rect width="4" height="7" x="39" y="36" fill="#FFF"/><rect width="2" height="8" x="22" y="17" fill="#5BA8D9"/><rect width="2" height="5" x="25" y="17" fill="#5BA8D9"/><rect width="2" height="5" x="28" y="20" fill="#5BA8D9"/><rect width="2" height="2" x="28" y="17" fill="#5BA8D9"/><rect width="3" height="2" x="34" y="17" fill="#5BA8D9"/><rect width="2" height="5" x="19" y="17" fill="#5BA8D9"/></g></g></g></switch></svg>