<svg xmlns="http://www.w3.org/2000/svg" xmlns:xlink="http://www.w3.org/1999/xlink" id="Calque_1" width="64" height="64" x="0" y="0" enable-background="new 0 0 64 64" version="1.1" viewBox="0 0 64 64" xml:space="preserve"><switch><g><path fill="#DFF0FA" d="M57,51c0,1.65-1.35,3-3,3H41.842h-1.684H11c-1.65,0-3-1.35-3-3V16c0-1.65,1.35-3,3-3h43 c1.65,0,3,1.35,3,3V51z" opacity=".5"/><path fill="#5BA8D9" d="M54,11H11c-2.75,0-5,2.25-5,5v35c0,2.75,2.25,5,5,5h26.973h6.055H54c2.75,0,5-2.25,5-5V16 C59,13.25,56.75,11,54,11z M57,51c0,1.65-1.35,3-3,3H41.842h-1.684H11c-1.65,0-3-1.35-3-3V16c0-1.65,1.35-3,3-3h43 c1.65,0,3,1.35,3,3V51z"/><rect width="21" height="17" x="22" y="20" fill="#5BA8D9"/><rect width="17" height="13" x="24" y="22" fill="#FFF"/><rect width="10" height="7" x="10" y="20" fill="#5BA8D9"/><rect width="6" height="3" x="12" y="22" fill="#FFF"/><rect width="10" height="7" x="10" y="29" fill="#5BA8D9"/><rect width="6" height="3" x="12" y="31" fill="#FFF"/><rect width="10" height="7" x="10" y="38" fill="#5BA8D9"/><rect width="6" height="3" x="12" y="40" fill="#FFF"/><rect width="10" height="7" x="45" y="20" fill="#5BA8D9"/><rect width="6" height="3" x="47" y="22" fill="#FFF"/><rect width="10" height="7" x="45" y="29" fill="#5BA8D9"/><rect width="6" height="3" x="47" y="31" fill="#FFF"/><rect width="10" height="7" x="45" y="38" fill="#5BA8D9"/><rect width="6" height="3" x="47" y="40" fill="#FFF"/><rect width="6" height="1" x="47" y="22" fill="#C3E3F5" opacity=".5"/><rect width="6" height="2" x="47" y="23" fill="#C3E3F5"/><rect width="6" height="1" x="47" y="31" fill="#C3E3F5" opacity=".5"/><rect width="6" height="2" x="47" y="32" fill="#C3E3F5"/><rect width="6" height="1" x="47" y="40" fill="#C3E3F5" opacity=".5"/><rect width="6" height="2" x="47" y="41" fill="#C3E3F5"/><g><path fill="#FFF" d="M11,54h29.158h1.684H54c1.65,0,3-1.35,3-3v-4H8v4C8,52.65,9.35,54,11,54z"/></g><rect width="49" height="2" x="8" y="47" fill="#91CAEB"/><rect width="17" height="13" x="24" y="22" fill="#FFF"/><rect width="17" height="3" x="24" y="32" fill="#C3E3F5"/><rect width="17" height="2" x="24" y="30" fill="#C3E3F5"/><rect width="17" height="2" x="24" y="22" fill="#C3E3F5" opacity=".5"/><rect width="17" height="2" x="24" y="28" fill="#C3E3F5" opacity=".75"/><rect width="8" height="2" x="24" y="26" fill="#C3E3F5" opacity=".75"/></g></switch></svg>