<svg xmlns="http://www.w3.org/2000/svg" xmlns:xlink="http://www.w3.org/1999/xlink" id="Layer_1" width="64" height="64" x="0" y="0" enable-background="new 0 0 64 64" version="1.1" viewBox="0 0 64 64" xml:space="preserve"><g id="Layer_1_1_"><rect width="53.132" height="40" x="6.868" y="14" fill="#AFACA0"/><rect width="50.964" height="38" x="7.952" y="15" fill="#33A6D3"/><g><rect width="29.601" height="22.201" x="18.7" y="22.149" fill="#289CBF"/><rect width="27.601" height="20.131" x="19.7" y="23.185" fill="#FFF"/></g><g><g><rect width="9" height="6" x="49" y="21" fill="#289CBF"/><rect width="7" height="4" x="50" y="22" fill="#FFF"/></g><g><rect width="9" height="6" x="49" y="27" fill="#289CBF"/><rect width="7" height="4" x="50" y="28" fill="#FFF"/></g><g><rect width="9" height="6" x="49" y="33" fill="#289CBF"/><rect width="7" height="4" x="50" y="34" fill="#FFF"/></g><g><rect width="9" height="6" x="49" y="39" fill="#289CBF"/><rect width="7" height="4" x="50" y="40" fill="#FFF"/></g></g><g><g><rect width="9" height="4" x="9" y="41" fill="#289CBF"/><rect width="7" height="2" x="10" y="42" fill="#FFF"/></g><g><rect width="9" height="4" x="9" y="41" fill="#289CBF"/><rect width="7" height="2" x="10" y="42" fill="#FFF"/></g><g><rect width="9" height="4" x="9" y="26" fill="#289CBF"/><rect width="7" height="2" x="10" y="27" fill="#FFF"/></g><g><rect width="9" height="4" x="9" y="31" fill="#289CBF"/><rect width="7" height="2" x="10" y="32" fill="#FFF"/></g><g><rect width="9" height="4" x="9" y="36" fill="#289CBF"/><rect width="7" height="2" x="10" y="37" fill="#FFF"/></g><g><rect width="9" height="4" x="9" y="21" fill="#289CBF"/><rect width="7" height="2" x="10" y="22" fill="#FFF"/></g></g></g></svg>