<svg xmlns="http://www.w3.org/2000/svg" xmlns:xlink="http://www.w3.org/1999/xlink" id="Calque_1" width="64" height="64" x="0" y="0" enable-background="new 0 0 64 64" version="1.1" viewBox="0 0 64 64" xml:space="preserve"><switch><g><g><path fill="#F19142" d="M54,6H19c-2.75,0-5,2.25-5,5v17l0,0c-5.5,0-8,0.5-8,6v15c0,5.5,4.5,10,10,10h3h5h30c2.75,0,5-2.25,5-5V11 C59,8.25,56.75,6,54,6z"/><g><path fill="#FFF" d="M54,8H19c-1.654,0-3,1.346-3,3v18v1v27h38c1.654,0,3-1.346,3-3V11C57,9.346,55.654,8,54,8z"/><path fill="#F6B178" d="M57,10.5L18,57h36c0,0,3,0,3-3C57,50,57,10.5,57,10.5z" opacity=".25"/><path fill="#F6B178" d="M14,30c-4.393,0-6-0.393-6,4v15c0,4.411,3.589,8,8,8V30H14z"/></g><rect width="2" height="23" x="14" y="30" fill="#F19142"/><rect width="2" height="19" x="10" y="30" fill="#F19142"/><circle cx="15" cy="53" r="1" fill="#F19142"/><circle cx="11" cy="49" r="1" fill="#F19142"/><g><rect width="14" height="2" x="39" y="16" fill="#F19142"/><rect width="14" height="2" x="39" y="21" fill="#F19142"/><rect width="14" height="2" x="39" y="26" fill="#F19142"/><rect width="33" height="2" x="20" y="31" fill="#F19142"/><rect width="33" height="2" x="20" y="36" fill="#F19142"/><rect width="16" height="12" x="20" y="16" fill="#F19142"/><rect width="33" height="8" x="20" y="41" fill="#F19142"/><rect width="31" height="6" x="21" y="42" fill="#F6B178"/></g><polygon fill="#F8BD95" points="21 17 21 19 21 21 21 23 21 24 21 25 21 27 35 27 35 25 35 24 35 23 35 19 35 17"/><polygon fill="#F19142" points="30 21 30 21 26 21 26 20 28 20 28 18 24 18 24 19 24 20 24 23 26 23 30 23 30 24 28 24 28 26 32 26 32 25 32 24 32 21"/></g></g></switch></svg>