<svg xmlns="http://www.w3.org/2000/svg" xmlns:xlink="http://www.w3.org/1999/xlink" id="Calque_1" width="64" height="64" x="0" y="0" enable-background="new 0 0 64 64" version="1.1" viewBox="0 0 64 64" xml:space="preserve"><switch><g><g><path fill="#F6B27A" d="M19.031,53.652c0,0-7.522-3.385-8.169,2.84c-0.107,1.246,0.521,1.848,1.155,1.494 C12.644,57.967,16.907,54.391,19.031,53.652z"/><path fill="#F6B27A" d="M19.462,51.221c0,0-5.139-13.545-13.669-6.619C-0.29,49.537,14.192,48.67,19.462,51.221z"/><path fill="#F5A664" d="M30.321,42.564c0,0-4.772,2.547-4.612,6.09c0.141,3.162-4.076,4.482-5.544,4.566 c-1.467,0.086,13.059,5.588,16.635-6.656C32.497,40.408,30.321,42.564,30.321,42.564z"/><line x1="23.833" x2="26.765" y1="55.771" y2="55.133" fill="#F5AB6E"/><polygon fill="#FDE3CE" points="36.925 46.682 30.192 42.359 36.377 30.881 44.79 36.283"/><path fill="#F6B27A" d="M57.396,11.102l-0.04-0.025c0.427-1.08,0.047-2.346-0.966-2.996l-0.035-0.023 c-1.014-0.65-2.321-0.469-3.125,0.369L53.188,8.4l-16.812,22.48l8.413,5.402L57.396,11.102z"/><g><g><path fill="#F7B884" d="M57.396,11.102l-0.04-0.025c0.368-0.934,0.134-2.002-0.59-2.695L40.583,33.582l4.207,2.701 L57.396,11.102z"/></g></g><polyline fill="#F6B178" points="40.583 33.582 33.56 44.521 36.056 46.125 44.79 36.283" opacity=".25"/><path fill="#F39A51" d="M32.138,43.607c0,0,1.798,1.193,2.666,1.75c0.679,0.436-3.473,3.531-3.51,4.52 c-0.117,3.152-6.327,4.283-11.256,3.418c3.464-0.672,6.312-2.334,5.677-5.082s4.608-5.67,4.608-5.67"/><path fill="#F6AD73" d="M33.56,44.521c0,0-1.481,11.287-13.521,8.773c7.663,2.813,12.436,0.779,16.018-7.17"/></g></g></switch></svg>