<svg xmlns="http://www.w3.org/2000/svg" xmlns:xlink="http://www.w3.org/1999/xlink" id="Calque_1" width="64" height="64" x="0" y="0" enable-background="new 0 0 64 64" version="1.1" viewBox="0 0 64 64" xml:space="preserve"><switch><g><path fill="#F19142" d="M10,12c-2.75,0-5,2.25-5,5v34c0,2.75,2.25,5,5,5h45c2.75,0,5-2.25,5-5V32L39,12H10z"/><path fill="#FFF" d="M44,32c-2.75,0-5-2.25-5-5V14H10c-1.65,0-3,1.35-3,3v34c0,1.65,1.35,3,3,3h45c1.65,0,3-1.35,3-3V32H44z"/><g><polygon fill="#F6B178" points="7 46 7 22 48 22 58 31 58 46"/></g><rect width="32" height="2" x="7" y="22" fill="#DFF0FA" opacity=".25"/><path fill="#F19142" d="M49.324,22H37v5c0,4.121,2.879,7,7,7h14v-3.807L49.324,22z" opacity=".5"/><polygon fill="#F19142" points="28 44 28 28 38 34 37.899 36"/><rect width="39" height="2" x="7" y="20" fill="#F19142"/><rect width="51" height="2" x="7" y="46" fill="#F19142"/><rect width="2" height="6" x="16" y="48" fill="#F19142"/><rect width="2" height="6" x="27" y="48" fill="#F19142"/><rect width="2" height="6" x="37" y="48" fill="#F19142"/><rect width="2" height="6" x="47" y="48" fill="#F19142"/><rect width="2" height="6" x="16" y="14" fill="#F19142"/><rect width="2" height="6" x="27" y="14" fill="#F19142"/><rect width="2" height="6" x="37" y="14" fill="#F19142"/><path fill="#F19142" d="M44,32h16L39,12v15C39,29.75,41.25,32,44,32z"/><polygon fill="#FFF" points="28 42 28 26 37.899 34"/><path fill="#F19142" d="M38,36"/><g><polygon fill="none" points="58 30.193 58 22 49.324 22"/></g><g><polygon fill="#F19142" points="60 32 58 30.096 58 32"/><polygon fill="#F19142" points="39 12 39 14 41.1 14"/><path fill="#F19142" d="M44,32h14v-1.904L41.1,14H39v13C39,29.75,41.25,32,44,32z"/></g></g></switch></svg>